<svg width="134" height="34" viewBox="0 0 134 34" fill="none" xmlns="http://www.w3.org/2000/svg">
    <path d="M49.1613 16.2821C48.3205 16.2821 47.602 15.9845 47.0065 15.3877C46.4102 14.7917 46.1128 14.0726 46.1128 13.2312V6.42576C46.1128 5.59475 46.4102 4.88161 47.0065 4.28484C47.602 3.67763 48.3205 3.37402 49.1613 3.37402C49.9916 3.37402 50.7041 3.67763 51.3004 4.28484C51.8967 4.88161 52.1941 5.59475 52.1941 6.42576C52.1941 6.52124 52.159 6.59882 52.0905 6.657C52.0211 6.71593 51.9496 6.74503 51.8751 6.74503H50.5185C50.4231 6.74503 50.3456 6.71071 50.2875 6.64134C50.2286 6.57196 50.1995 6.50035 50.1995 6.42576C50.1995 6.13782 50.0982 5.89314 49.8962 5.69098C49.683 5.47838 49.4385 5.37171 49.162 5.37171C48.875 5.37171 48.6246 5.47838 48.4114 5.69098C48.2094 5.89314 48.1081 6.13856 48.1081 6.42576V13.2312C48.1081 13.5296 48.2094 13.7794 48.4114 13.9824C48.6134 14.1845 48.8639 14.286 49.162 14.286C49.4385 14.286 49.683 14.1845 49.8962 13.9824C50.0982 13.7802 50.1995 13.5296 50.1995 13.2312C50.1995 13.1349 50.2338 13.0581 50.3031 12.9999C50.3724 12.9417 50.444 12.9119 50.5185 12.9119H51.8751C51.9712 12.9119 52.048 12.9462 52.1061 13.0156C52.1642 13.085 52.1941 13.1566 52.1941 13.2312C52.1941 14.0726 51.8959 14.7917 51.3004 15.3877C51.0134 15.6861 50.6885 15.9099 50.327 16.0591C49.9647 16.2076 49.5764 16.2821 49.1613 16.2821Z" fill="url(#paint0_linear_1_8)"/>
    <path d="M56.4403 16.2821C55.5996 16.2821 54.881 15.9845 54.2855 15.3877C53.6892 14.7917 53.3918 14.0726 53.3918 13.2312V6.42576C53.3918 5.59475 53.6892 4.88161 54.2855 4.28484C54.881 3.67763 55.5996 3.37402 56.4403 3.37402C57.2706 3.37402 57.9832 3.67763 58.5794 4.28484C59.1757 4.88161 59.4731 5.59475 59.4731 6.42576V13.2312C59.4731 14.0726 59.175 14.7917 58.5794 15.3877C58.2925 15.6861 57.9675 15.9099 57.606 16.0591C57.2438 16.2076 56.8555 16.2821 56.4403 16.2821ZM56.4403 14.2852C56.7168 14.2852 56.9613 14.1838 57.1745 13.9816C57.3765 13.7794 57.4778 13.5288 57.4778 13.2304V6.42501C57.4778 6.13707 57.3765 5.89239 57.1745 5.69023C56.9613 5.47764 56.7168 5.37097 56.4403 5.37097C56.1533 5.37097 55.9029 5.47764 55.6897 5.69023C55.4878 5.89239 55.3864 6.13781 55.3864 6.42501V13.2304C55.3864 13.5288 55.4878 13.7787 55.6897 13.9816C55.8917 14.1845 56.1422 14.2852 56.4403 14.2852Z" fill="url(#paint1_linear_1_8)"/>
    <path d="M60.6702 15.9629V3.69404C60.6702 3.59781 60.7045 3.52098 60.7738 3.46205C60.8431 3.40386 60.9146 3.37402 60.9892 3.37402H64.054C64.8843 3.37402 65.5969 3.67763 66.1932 4.28484C66.7887 4.88161 67.0868 5.59475 67.0868 6.42575V13.2311C67.0868 14.0726 66.7887 14.7917 66.1932 15.3877C65.9055 15.6861 65.5812 15.9099 65.2197 16.0591C64.8575 16.2083 64.4692 16.2829 64.0548 16.2829H60.9899C60.8938 16.2829 60.817 16.2485 60.7589 16.1792C60.6992 16.1091 60.6702 16.0374 60.6702 15.9629ZM64.054 14.2852C64.3306 14.2852 64.575 14.1837 64.7882 13.9816C64.9902 13.7794 65.0915 13.5288 65.0915 13.2304V6.425C65.0915 6.13706 64.9902 5.89238 64.7882 5.69023C64.575 5.47763 64.3306 5.37096 64.054 5.37096H62.6655V14.2852H64.054Z" fill="url(#paint2_linear_1_8)"/>
    <path d="M68.2838 15.9629V3.69404C68.2838 3.59781 68.3181 3.52098 68.3874 3.46205C68.4567 3.40386 68.5283 3.37402 68.6028 3.37402H74.0461C74.1422 3.37402 74.219 3.40834 74.2771 3.47771C74.3353 3.54709 74.3651 3.6187 74.3651 3.6933V5.05095C74.3651 5.14717 74.33 5.22401 74.2615 5.28294C74.1922 5.34187 74.1206 5.37096 74.0461 5.37096H70.2791V8.82177H73.0242C73.1196 8.82177 73.1971 8.85608 73.2553 8.92546C73.3134 8.99483 73.3432 9.06645 73.3432 9.14104V10.5151C73.3432 10.6113 73.3082 10.6882 73.2396 10.7464C73.1703 10.8053 73.0987 10.8344 73.0242 10.8344H70.2791V14.2852H74.0461C74.1422 14.2852 74.219 14.3202 74.2771 14.3889C74.3353 14.4582 74.3651 14.5299 74.3651 14.6045V15.9621C74.3651 16.0583 74.33 16.1352 74.2615 16.1934C74.1922 16.2523 74.1206 16.2814 74.0461 16.2814H68.6028C68.5067 16.2814 68.4299 16.2471 68.3718 16.1777C68.3129 16.1091 68.2838 16.0375 68.2838 15.9629Z" fill="url(#paint3_linear_1_8)"/>
    <path d="M81.4846 15.9629V3.69404C81.4846 3.59781 81.5189 3.52098 81.5882 3.46205C81.6575 3.40386 81.7291 3.37402 81.8036 3.37402H84.5331C85.3634 3.37402 86.0759 3.67763 86.6722 4.28484C87.2685 4.88161 87.5659 5.59475 87.5659 6.42576V9.1418C87.5659 9.98325 87.2677 10.7024 86.6722 11.2984C86.0759 11.8952 85.3634 12.1928 84.5331 12.1928H83.4799V15.9629C83.4799 16.0591 83.4449 16.1359 83.3763 16.1941C83.307 16.2531 83.2354 16.2821 83.1609 16.2821H81.8044C81.7082 16.2821 81.6315 16.2478 81.5733 16.1785C81.5137 16.1091 81.4846 16.0375 81.4846 15.9629ZM84.5331 10.1794C84.8096 10.1794 85.0541 10.084 85.2672 9.89224C85.4692 9.67964 85.5706 9.429 85.5706 9.14106V6.42501C85.5706 6.13707 85.4692 5.89239 85.2672 5.69023C85.0541 5.47764 84.8096 5.37097 84.5331 5.37097H83.4799V10.1794H84.5331V10.1794Z" fill="url(#paint4_linear_1_8)"/>
    <path d="M88.795 15.8828L91.8598 3.61397C91.8919 3.45433 91.9925 3.37451 92.1632 3.37451H93.5197C93.6896 3.37451 93.791 3.45433 93.8231 3.61397L96.8879 15.8828C96.8984 15.9365 96.9036 15.9842 96.9036 16.0268C96.9036 16.1976 96.797 16.2826 96.5846 16.2826H95.228C95.0581 16.2826 94.9567 16.2028 94.9247 16.0432L94.2859 13.5509H91.397L90.7582 16.0432C90.7261 16.2028 90.6248 16.2826 90.4548 16.2826H89.0983C89.0558 16.2826 89.0133 16.2804 88.9709 16.2744C88.9284 16.2692 88.8799 16.2341 88.827 16.1707C88.795 16.1282 88.7793 16.0745 88.7793 16.0111C88.7793 15.9678 88.7845 15.9253 88.795 15.8828ZM93.791 11.5532L92.8496 7.7354L91.8919 11.5532H93.791Z" fill="url(#paint5_linear_1_8)"/>
    <path d="M103.065 11.5057L104.151 15.883C104.161 15.9367 104.166 15.9845 104.166 16.027C104.166 16.1978 104.06 16.2829 103.847 16.2829H102.491C102.321 16.2829 102.219 16.203 102.187 16.0434L101.23 12.1935H100.08V15.9636C100.08 16.0598 100.045 16.1367 99.9766 16.1948C99.9073 16.2538 99.8358 16.2829 99.7612 16.2829H98.4047C98.3085 16.2829 98.2318 16.2485 98.1736 16.1792C98.1148 16.1098 98.0857 16.0382 98.0857 15.9636V3.69404C98.0857 3.59781 98.12 3.52098 98.1893 3.46205C98.2586 3.40386 98.3302 3.37402 98.4047 3.37402H101.134C101.964 3.37402 102.677 3.67763 103.273 4.28484C103.87 4.88161 104.167 5.59475 104.167 6.42575V9.14179C104.167 9.98323 103.869 10.7023 103.273 11.2984C103.208 11.3618 103.139 11.4311 103.065 11.5057ZM101.133 10.1794C101.41 10.1794 101.654 10.0839 101.868 9.89223C102.07 9.67963 102.171 9.42898 102.171 9.14104V6.425C102.171 6.13706 102.07 5.89238 101.868 5.69023C101.654 5.47763 101.41 5.37096 101.133 5.37096H100.08V10.1794H101.133V10.1794Z" fill="url(#paint6_linear_1_8)"/>
    <path d="M107.407 15.9629V5.37097H105.683C105.587 5.37097 105.51 5.33665 105.452 5.26728C105.393 5.1979 105.364 5.12629 105.364 5.05169V3.69404C105.364 3.59781 105.398 3.52098 105.467 3.46205C105.537 3.40386 105.608 3.37402 105.683 3.37402H111.126C111.222 3.37402 111.299 3.40834 111.357 3.47771C111.415 3.54709 111.445 3.6187 111.445 3.6933V5.05095C111.445 5.14718 111.41 5.22401 111.342 5.28294C111.272 5.34187 111.201 5.37097 111.126 5.37097H109.402V15.9629C109.402 16.0591 109.368 16.1359 109.299 16.1941C109.229 16.2531 109.158 16.2821 109.083 16.2821H107.727C107.63 16.2821 107.554 16.2478 107.495 16.1785C107.436 16.1091 107.407 16.0375 107.407 15.9629Z" fill="url(#paint7_linear_1_8)"/>
    <path d="M114.622 3.58215L117.064 10.116V3.69404C117.064 3.59781 117.099 3.52098 117.168 3.46205C117.237 3.40386 117.309 3.37402 117.383 3.37402H118.74C118.835 3.37402 118.913 3.40834 118.971 3.47771C119.029 3.54709 119.059 3.6187 119.059 3.6933V15.9621C119.059 16.0583 119.024 16.1352 118.955 16.1934C118.886 16.2523 118.814 16.2814 118.74 16.2814H117.383C117.234 16.2814 117.133 16.212 117.08 16.074L114.638 9.54013V15.9621C114.638 16.0583 114.603 16.1352 114.535 16.1934C114.465 16.2523 114.394 16.2814 114.319 16.2814H112.963C112.867 16.2814 112.79 16.2471 112.732 16.1777C112.673 16.1083 112.644 16.0367 112.644 15.9621V3.69404C112.644 3.59781 112.678 3.52098 112.747 3.46205C112.817 3.40386 112.888 3.37402 112.963 3.37402H114.319C114.467 3.37402 114.568 3.4434 114.622 3.58215Z" fill="url(#paint8_linear_1_8)"/>
    <path d="M120.256 15.9629V3.69404C120.256 3.59781 120.29 3.52098 120.36 3.46205C120.429 3.40386 120.5 3.37402 120.575 3.37402H126.018C126.114 3.37402 126.191 3.40834 126.249 3.47771C126.307 3.54709 126.337 3.6187 126.337 3.6933V5.05095C126.337 5.14717 126.302 5.22401 126.234 5.28294C126.164 5.34187 126.093 5.37096 126.018 5.37096H122.251V8.82177H124.996C125.092 8.82177 125.169 8.85608 125.227 8.92546C125.286 8.99483 125.315 9.06645 125.315 9.14104V10.5151C125.315 10.6113 125.28 10.6882 125.212 10.7464C125.142 10.8053 125.071 10.8344 124.996 10.8344H122.251V14.2852H126.018C126.114 14.2852 126.191 14.3202 126.249 14.3889C126.307 14.4582 126.337 14.5299 126.337 14.6045V15.9621C126.337 16.0583 126.302 16.1352 126.234 16.1934C126.164 16.2523 126.093 16.2814 126.018 16.2814H120.575C120.479 16.2814 120.402 16.2471 120.344 16.1777C120.285 16.1091 120.256 16.0375 120.256 15.9629Z" fill="url(#paint9_linear_1_8)"/>
    <path d="M132.515 11.5057L133.6 15.883C133.61 15.9367 133.615 15.9845 133.615 16.027C133.615 16.1978 133.509 16.2829 133.296 16.2829H131.94C131.77 16.2829 131.669 16.203 131.637 16.0434L130.679 12.1935H129.529V15.9636C129.529 16.0598 129.494 16.1367 129.426 16.1948C129.357 16.2538 129.285 16.2829 129.21 16.2829H127.854C127.758 16.2829 127.681 16.2485 127.623 16.1792C127.564 16.1098 127.535 16.0382 127.535 15.9636V3.69404C127.535 3.59781 127.569 3.52098 127.639 3.46205C127.708 3.40386 127.779 3.37402 127.854 3.37402H130.583C131.414 3.37402 132.126 3.67763 132.723 4.28484C133.319 4.88161 133.616 5.59475 133.616 6.42575V9.14179C133.616 9.98323 133.318 10.7023 132.723 11.2984C132.658 11.3618 132.589 11.4311 132.515 11.5057ZM130.583 10.1794C130.86 10.1794 131.104 10.0839 131.318 9.89223C131.52 9.67963 131.621 9.42898 131.621 9.14104V6.425C131.621 6.13706 131.52 5.89238 131.318 5.69023C131.104 5.47763 130.86 5.37096 130.583 5.37096H129.53V10.1794H130.583V10.1794Z" fill="url(#paint10_linear_1_8)"/>
    <path d="M33.4979 14.1846H31.2951H28.9315C28.9315 14.1846 31.5235 14.7508 31.5385 17.1556C31.3861 25.1286 24.8597 31.5688 16.8559 31.5688C11.5056 31.5688 6.8156 28.6906 4.2489 24.4002C3.99042 23.9691 3.75303 23.5234 3.53974 23.0639H16.7504C17.2343 24.9881 18.9785 26.4179 21.0494 26.4179C23.4962 26.4179 25.4851 24.4255 25.4851 21.9785C25.4851 19.5297 23.4956 17.5391 21.0494 17.5391C18.9785 17.5391 17.2343 18.9671 16.7504 20.8931H0.485596C0.665747 21.6378 0.899524 22.3632 1.17668 23.0645C1.35683 23.5204 1.55747 23.9666 1.77437 24.4008C4.54292 29.9347 10.2638 33.7409 16.8559 33.7409C26.1497 33.7409 33.7118 26.1731 33.7118 16.871C33.7118 15.9568 33.6383 15.0577 33.4979 14.1846ZM21.05 19.71C22.3002 19.71 23.316 20.7273 23.316 21.9785C23.316 23.228 22.2996 24.247 21.05 24.247C19.8016 24.247 18.7851 23.228 18.7851 21.9785C18.7851 20.7267 19.8016 19.71 21.05 19.71Z" fill="url(#paint11_linear_1_8)"/>
    <path d="M33.4979 14.1846H31.2951H28.9315C28.9315 14.1846 31.5235 14.7508 31.5385 17.1556C31.3861 25.1286 24.8597 31.5688 16.8559 31.5688C11.5056 31.5688 6.8156 28.6906 4.2489 24.4002C3.99042 23.9691 3.75303 23.5234 3.53974 23.0639H16.7504C17.2343 24.9881 18.9785 26.4179 21.0494 26.4179C23.4962 26.4179 25.4851 24.4255 25.4851 21.9785C25.4851 19.5297 23.4956 17.5391 21.0494 17.5391C18.9785 17.5391 17.2343 18.9671 16.7504 20.8931H0.485596C0.665747 21.6378 0.899524 22.3632 1.17668 23.0645C1.35683 23.5204 1.55747 23.9666 1.77437 24.4008C4.54292 29.9347 10.2638 33.7409 16.8559 33.7409C26.1497 33.7409 33.7118 26.1731 33.7118 16.871C33.7118 15.9568 33.6383 15.0577 33.4979 14.1846ZM21.05 19.71C22.3002 19.71 23.316 20.7273 23.316 21.9785C23.316 23.228 22.2996 24.247 21.05 24.247C19.8016 24.247 18.7851 23.228 18.7851 21.9785C18.7851 20.7267 19.8016 19.71 21.05 19.71Z" fill="url(#paint12_linear_1_8)"/>
    <path d="M4.78034 19.5563C4.78034 19.5563 2.18773 18.9901 2.17327 16.5847C2.32631 8.61222 8.85394 2.17205 16.8559 2.17205C22.2062 2.17205 26.8974 5.05023 29.4629 9.34066C29.7214 9.77182 29.9588 10.2174 30.1721 10.6769H16.9626C16.4787 8.75272 14.7327 7.32298 12.6618 7.32298C10.215 7.32298 8.22612 9.31534 8.22612 11.7624C8.22612 14.2112 10.2156 16.2017 12.6618 16.2017C14.7327 16.2017 16.4787 14.7738 16.9626 12.8478H33.2262C33.0461 12.1031 32.8123 11.3782 32.5351 10.6763C32.355 10.2205 32.1543 9.77423 31.9374 9.34006C29.1689 3.80622 23.448 0 16.8559 0C7.56215 0 0 7.5678 0 16.8699C0 17.7834 0.0735059 18.6819 0.213892 19.5557H2.41668H4.78034V19.5563ZM12.6618 14.0309C11.4116 14.0309 10.3952 13.0136 10.3952 11.7624C10.3952 10.5111 11.4116 9.49443 12.6618 9.49443C13.9102 9.49443 14.9285 10.5117 14.9285 11.7624C14.9285 13.0136 13.9102 14.0309 12.6618 14.0309Z" fill="url(#paint13_linear_1_8)"/>
    <path d="M46.6964 22.4671H47.7589C48.546 22.4671 49.1199 22.5682 49.4806 22.7704C49.9857 23.0585 50.2382 23.5182 50.2382 24.1495C50.2251 24.4437 50.1365 24.7226 49.9726 24.9861C49.8086 25.2497 49.543 25.4428 49.1757 25.5653C49.5036 25.6328 49.7725 25.7615 49.9824 25.9515C50.1989 26.1354 50.3431 26.3223 50.4153 26.5123C50.4874 26.7023 50.5235 26.9291 50.5235 27.1926C50.5235 27.4562 50.4547 27.7228 50.3169 27.9925C50.1857 28.2622 49.9922 28.4675 49.7364 28.6085C49.3626 28.8046 48.8313 28.9027 48.1426 28.9027H46.716C46.5455 28.9027 46.4275 28.8751 46.3619 28.8199C46.3028 28.7586 46.2733 28.6452 46.2733 28.4798V22.8716C46.2733 22.7122 46.2996 22.605 46.352 22.5498C46.4111 22.4946 46.5258 22.4671 46.6964 22.4671ZM47.7491 22.9267H46.7652V28.4522H48.3C49.4544 28.4522 50.0316 28.0139 50.0316 27.1375C50.0316 26.7758 49.8709 26.4633 49.5495 26.1997C49.2347 25.93 48.7887 25.7952 48.2115 25.7952H47.5523C47.4802 25.7952 47.4277 25.7952 47.3949 25.7952C47.3621 25.7891 47.3227 25.7707 47.2768 25.74C47.2375 25.7032 47.2178 25.645 47.2178 25.5653C47.2178 25.4795 47.2506 25.4244 47.3162 25.3999C47.3883 25.3753 47.4867 25.3631 47.6113 25.3631H48.2312C48.7756 25.3631 49.1625 25.2374 49.3921 24.9861C49.6282 24.7348 49.7463 24.4529 49.7463 24.1403C49.7463 23.8155 49.6348 23.5458 49.4118 23.3313C49.1429 23.0616 48.5886 22.9267 47.7491 22.9267Z" fill="black"/>
    <path d="M52.0466 22.1912H52.1253C52.25 22.1912 52.3123 22.2495 52.3123 22.3659V27.4868C52.3123 28.1427 52.6107 28.4706 53.2076 28.4706H53.365C53.4175 28.4706 53.4601 28.4889 53.4929 28.5257C53.5322 28.5625 53.5519 28.6023 53.5519 28.6452V28.7188C53.5519 28.8414 53.4339 28.9027 53.1977 28.9027C52.7517 28.9027 52.4139 28.7831 52.1844 28.5441C51.9548 28.3051 51.8433 27.9557 51.8499 27.496V22.3659C51.8499 22.2495 51.9155 22.1912 52.0466 22.1912Z" fill="black"/>
    <path d="M55.1354 25.8044C55.1354 25.3202 55.2928 24.9463 55.6076 24.6827C55.9224 24.4192 56.3324 24.2874 56.8374 24.2874C57.3425 24.2874 57.7491 24.4223 58.0574 24.6919C58.3657 24.9555 58.5198 25.3263 58.5198 25.8044V27.4041C58.5198 27.8822 58.3657 28.256 58.0574 28.5257C57.7491 28.7893 57.3425 28.9211 56.8374 28.9211C56.3389 28.9211 55.929 28.7893 55.6076 28.5257C55.2928 28.256 55.1354 27.8822 55.1354 27.4041V25.8044ZM58.0574 25.8044C58.0574 25.455 57.9426 25.1884 57.713 25.0045C57.4835 24.8145 57.1916 24.7195 56.8374 24.7195C56.4832 24.7195 56.1881 24.8145 55.952 25.0045C55.7158 25.1884 55.5978 25.455 55.5978 25.8044V27.4041C55.5978 27.7534 55.7158 28.0231 55.952 28.2131C56.1881 28.397 56.4832 28.4889 56.8374 28.4889C57.1916 28.4889 57.4835 28.397 57.713 28.2131C57.9426 28.0231 58.0574 27.7534 58.0574 27.4041V25.8044Z" fill="black"/>
    <path d="M60.4866 25.8044C60.4866 25.3202 60.644 24.9463 60.9588 24.6827C61.2736 24.4192 61.6836 24.2874 62.1886 24.2874C62.6936 24.2874 63.1003 24.4223 63.4086 24.6919C63.7168 24.9555 63.871 25.3263 63.871 25.8044C63.871 25.9208 63.8054 25.9791 63.6742 25.9791H63.5955C63.4709 25.9791 63.4086 25.9208 63.4086 25.8044C63.4086 25.455 63.2938 25.1884 63.0642 25.0045C62.8347 24.8206 62.5428 24.7287 62.1886 24.7287C61.8344 24.7287 61.5393 24.8237 61.3031 25.0137C61.0736 25.1976 60.9588 25.4642 60.9588 25.8136V27.3949C60.9588 27.7443 61.0736 28.0139 61.3031 28.2039C61.5393 28.3878 61.8344 28.4798 62.1886 28.4798C62.5428 28.4798 62.8314 28.3909 63.0544 28.2131C63.2839 28.0293 63.402 27.7688 63.4086 27.4317C63.4086 27.3826 63.425 27.3397 63.4578 27.303C63.4971 27.2662 63.543 27.2478 63.5955 27.2478H63.6742C63.7332 27.2478 63.7791 27.2662 63.8119 27.303C63.8513 27.3397 63.871 27.3826 63.871 27.4317C63.8579 27.8975 63.6972 28.2622 63.3889 28.5257C63.0806 28.7893 62.6772 28.9211 62.1788 28.9211C61.6868 28.9211 61.2802 28.7893 60.9588 28.5257C60.644 28.256 60.4866 27.8822 60.4866 27.4041V25.8044Z" fill="black"/>
    <path d="M65.9261 22.1912H66.0146C66.1392 22.1912 66.2015 22.2495 66.2015 22.3659V28.2591C66.3458 28.0507 66.7754 27.3796 67.4904 26.2457C68.2053 25.1118 68.6021 24.4835 68.6808 24.361C68.7071 24.3242 68.7562 24.3058 68.8284 24.3058H69.0448C69.1301 24.3058 69.1727 24.3364 69.1727 24.3977C69.1727 24.459 68.9301 24.8636 68.4447 25.6113L67.8839 26.4755L69.1727 28.682C69.2055 28.7311 69.2219 28.774 69.2219 28.8107C69.2219 28.872 69.1793 28.9027 69.094 28.9027H68.8776C68.8251 28.9027 68.7726 28.872 68.7202 28.8107L67.6084 26.9168C66.9263 27.9833 66.5459 28.5656 66.4672 28.6636C66.395 28.7617 66.3294 28.8261 66.2704 28.8567C66.2179 28.8873 66.1556 28.9027 66.0835 28.9027C65.8539 28.9027 65.7391 28.7831 65.7391 28.5441V22.3659C65.7391 22.2495 65.8014 22.1912 65.9261 22.1912Z" fill="black"/>
    <path d="M70.8719 25.8044C70.8719 25.3202 71.0293 24.9463 71.3441 24.6827C71.6589 24.4192 72.0689 24.2874 72.5739 24.2874C73.079 24.2874 73.4856 24.4223 73.7939 24.6919C74.1022 24.9555 74.2563 25.3263 74.2563 25.8044C74.2563 25.9208 74.1907 25.9791 74.0595 25.9791H73.9808C73.8562 25.9791 73.7939 25.9208 73.7939 25.8044C73.7939 25.455 73.6791 25.1884 73.4495 25.0045C73.22 24.8206 72.9281 24.7287 72.5739 24.7287C72.2197 24.7287 71.9246 24.8237 71.6885 25.0137C71.4589 25.1976 71.3441 25.4642 71.3441 25.8136V27.3949C71.3441 27.7443 71.4589 28.0139 71.6885 28.2039C71.9246 28.3878 72.2197 28.4798 72.5739 28.4798C72.9281 28.4798 73.2167 28.3909 73.4397 28.2131C73.6693 28.0293 73.7873 27.7688 73.7939 27.4317C73.7939 27.3826 73.8103 27.3397 73.8431 27.303C73.8824 27.2662 73.9283 27.2478 73.9808 27.2478H74.0595C74.1186 27.2478 74.1645 27.2662 74.1973 27.303C74.2366 27.3397 74.2563 27.3826 74.2563 27.4317C74.2432 27.8975 74.0825 28.2622 73.7742 28.5257C73.4659 28.7893 73.0626 28.9211 72.5641 28.9211C72.0722 28.9211 71.6655 28.7893 71.3441 28.5257C71.0293 28.256 70.8719 27.8822 70.8719 27.4041V25.8044Z" fill="black"/>
    <path d="M77.9445 24.2874C78.3971 24.2874 78.7644 24.4223 79.0465 24.6919C79.3351 24.9616 79.4793 25.3324 79.4793 25.8044V28.7188C79.4793 28.8414 79.417 28.9027 79.2924 28.9027H79.2039C79.0727 28.9027 79.0071 28.8414 79.0071 28.7188V25.8136C79.0071 25.4642 78.9054 25.1945 78.7021 25.0045C78.4988 24.8145 78.2233 24.7195 77.8757 24.7195C77.5346 24.7195 77.2395 24.836 76.9902 25.0689C76.9312 25.124 76.8754 25.1516 76.823 25.1516C76.7049 25.1516 76.6426 25.0903 76.636 24.9677C76.636 24.9248 76.6492 24.8789 76.6754 24.8298C76.7607 24.6827 76.9246 24.5571 77.1673 24.4529C77.41 24.3426 77.6691 24.2874 77.9445 24.2874ZM76.3114 22.182H76.3901C76.4425 22.182 76.4885 22.2004 76.5278 22.2372C76.5672 22.2679 76.5868 22.3108 76.5868 22.3659V28.7188C76.5868 28.774 76.5672 28.8199 76.5278 28.8567C76.4885 28.8873 76.4425 28.9027 76.3901 28.9027H76.3114C76.2589 28.9027 76.213 28.8873 76.1736 28.8567C76.1343 28.8199 76.1146 28.774 76.1146 28.7188V22.3659C76.1146 22.3108 76.1343 22.2679 76.1736 22.2372C76.213 22.2004 76.2589 22.182 76.3114 22.182Z" fill="black"/>
    <path d="M81.3347 25.8044C81.3347 25.3202 81.4922 24.9463 81.807 24.6827C82.1218 24.4192 82.5317 24.2874 83.0368 24.2874C83.5418 24.2874 83.9485 24.4223 84.2568 24.6919C84.565 24.9555 84.7192 25.3263 84.7192 25.8044V27.827C84.7192 28.066 84.7388 28.2315 84.7782 28.3235C84.8241 28.4093 84.9094 28.4675 85.034 28.4981L85.1422 28.5257C85.2406 28.5441 85.2898 28.584 85.2898 28.6452V28.7464C85.2898 28.8506 85.2242 28.9027 85.093 28.9027C84.7716 28.9027 84.5519 28.8138 84.4338 28.636C84.3158 28.4583 84.2568 28.1856 84.2568 27.8178V25.8044C84.2568 25.455 84.142 25.1884 83.9124 25.0045C83.6828 24.8145 83.391 24.7195 83.0368 24.7195C82.6826 24.7195 82.3874 24.8145 82.1513 25.0045C81.9152 25.1884 81.7971 25.455 81.7971 25.8044V27.3765C81.7971 27.7381 81.8922 28.0109 82.0825 28.1947C82.2792 28.3786 82.558 28.4706 82.9187 28.4706C83.286 28.4706 83.5877 28.3327 83.8239 28.0568C83.8698 28.0017 83.9321 27.9741 84.0108 27.9741C84.0961 27.9741 84.1551 28.0201 84.1879 28.112C84.2076 28.1856 84.1977 28.2499 84.1584 28.3051C83.8763 28.7035 83.4697 28.9027 82.9384 28.9027C82.4137 28.9027 82.0136 28.7709 81.7381 28.5073C81.4692 28.2438 81.3347 27.8699 81.3347 27.3857V25.8044Z" fill="black"/>
    <path d="M86.863 24.2966H87.0303C87.109 24.2966 87.1614 24.3119 87.1877 24.3426C87.2139 24.3732 87.227 24.4192 87.227 24.4805V28.7188C87.227 28.774 87.2074 28.8199 87.168 28.8567C87.1287 28.8873 87.0827 28.9027 87.0303 28.9027H86.863C86.8105 28.9027 86.7646 28.8873 86.7253 28.8567C86.6859 28.8199 86.6662 28.774 86.6662 28.7188V24.4805C86.6662 24.4008 86.6826 24.3518 86.7154 24.3334C86.7548 24.3089 86.804 24.2966 86.863 24.2966ZM86.4793 22.2556C86.5449 22.2004 86.6958 22.1729 86.9319 22.1729C87.168 22.1729 87.3221 22.2035 87.3943 22.2648C87.4664 22.32 87.5025 22.4395 87.5025 22.6233V22.7429C87.5025 22.9513 87.4664 23.083 87.3943 23.1382C87.3221 23.1934 87.168 23.2209 86.9319 23.2209C86.6958 23.2209 86.5449 23.1934 86.4793 23.1382C86.4137 23.083 86.3809 22.9513 86.3809 22.7429V22.6233C86.3809 22.4272 86.4137 22.3046 86.4793 22.2556ZM87.1582 22.6509C87.1582 22.5896 87.1418 22.5498 87.109 22.5314C87.0827 22.5069 87.0237 22.4946 86.9319 22.4946C86.8466 22.4946 86.7909 22.5038 86.7646 22.5222C86.7384 22.5406 86.7253 22.5835 86.7253 22.6509V22.7429C86.7253 22.8103 86.7384 22.8532 86.7646 22.8716C86.7909 22.89 86.8499 22.8992 86.9417 22.8992C87.0335 22.8992 87.0926 22.89 87.1188 22.8716C87.1451 22.8532 87.1582 22.8103 87.1582 22.7429V22.6509Z" fill="black"/>
    <path d="M90.8092 24.2874C91.3012 24.2874 91.6783 24.41 91.9406 24.6552C92.203 24.8942 92.3342 25.2466 92.3342 25.7124V28.7188C92.3342 28.8414 92.2719 28.9027 92.1473 28.9027H92.0685C91.9374 28.9027 91.8718 28.8414 91.8718 28.7188V25.8136C91.8718 25.0842 91.5143 24.7195 90.7994 24.7195C90.4255 24.7195 90.1074 24.8574 89.8451 25.1332C89.7729 25.1884 89.7106 25.216 89.6581 25.216C89.5401 25.216 89.4778 25.1547 89.4712 25.0321C89.4712 24.9831 89.4843 24.934 89.5106 24.885C89.6483 24.7073 89.8319 24.5632 90.0615 24.4529C90.2911 24.3426 90.5403 24.2874 90.8092 24.2874ZM89.1465 24.315H89.2252C89.2777 24.315 89.3236 24.3334 89.363 24.3702C89.4023 24.4008 89.422 24.4437 89.422 24.4989V28.7188C89.422 28.774 89.4023 28.8199 89.363 28.8567C89.3236 28.8873 89.2777 28.9027 89.2252 28.9027H89.1465C89.0941 28.9027 89.0481 28.8873 89.0088 28.8567C88.9694 28.8199 88.9498 28.774 88.9498 28.7188V24.4989C88.9498 24.4437 88.9694 24.4008 89.0088 24.3702C89.0481 24.3334 89.0941 24.315 89.1465 24.315Z" fill="black"/>
    <path d="M99.6197 23.9289C99.6197 23.5305 99.7935 23.1842 100.141 22.89C100.489 22.5958 100.961 22.4487 101.558 22.4487C102.161 22.4487 102.666 22.5988 103.073 22.8992C103.486 23.1934 103.706 23.6347 103.732 24.2231C103.732 24.2721 103.712 24.3181 103.673 24.361C103.634 24.3977 103.588 24.4161 103.535 24.4161H103.437C103.391 24.4161 103.348 24.4008 103.309 24.3702C103.27 24.3334 103.247 24.2905 103.24 24.2414C103.221 23.7756 103.053 23.4385 102.738 23.2301C102.424 23.0156 102.047 22.9084 101.607 22.9084C101.135 22.9084 100.768 23.0095 100.505 23.2117C100.243 23.414 100.112 23.6653 100.112 23.9656C100.112 24.2598 100.203 24.4958 100.387 24.6735C100.643 24.9126 101.118 25.1578 101.814 25.409C102.64 25.7155 103.191 26.022 103.467 26.3284C103.676 26.5613 103.781 26.8954 103.781 27.3305C103.781 27.7657 103.591 28.1396 103.211 28.4522C102.837 28.7586 102.302 28.9119 101.607 28.9119C101.089 28.9119 100.6 28.7801 100.141 28.5165C99.8985 28.3756 99.6984 28.1794 99.541 27.9281C99.3901 27.6707 99.3082 27.3765 99.295 27.0455C99.295 26.9168 99.3606 26.8525 99.4918 26.8525H99.5803C99.6984 26.8525 99.764 26.9107 99.7771 27.0271C99.7902 27.2968 99.8624 27.5328 99.9936 27.7351C100.125 27.9312 100.289 28.0783 100.485 28.1764C100.866 28.3664 101.282 28.4614 101.735 28.4614C102.194 28.4614 102.568 28.351 102.857 28.1304C103.152 27.9036 103.299 27.6217 103.299 27.2846C103.299 26.9413 103.181 26.6778 102.945 26.4939C102.755 26.3468 102.548 26.2212 102.325 26.117C102.037 25.9883 101.584 25.8074 100.968 25.5745C100.495 25.3784 100.151 25.1547 99.9345 24.9034C99.7246 24.646 99.6197 24.3211 99.6197 23.9289Z" fill="black"/>
    <path d="M105.342 25.8044C105.342 25.3202 105.5 24.9463 105.814 24.6827C106.129 24.4192 106.539 24.2874 107.044 24.2874C107.549 24.2874 107.956 24.4223 108.264 24.6919C108.572 24.9555 108.727 25.3263 108.727 25.8044V27.4041C108.727 27.8822 108.572 28.256 108.264 28.5257C107.956 28.7893 107.549 28.9211 107.044 28.9211C106.546 28.9211 106.136 28.7893 105.814 28.5257C105.5 28.256 105.342 27.8822 105.342 27.4041V25.8044ZM108.264 25.8044C108.264 25.455 108.149 25.1884 107.92 25.0045C107.69 24.8145 107.398 24.7195 107.044 24.7195C106.69 24.7195 106.395 24.8145 106.159 25.0045C105.923 25.1884 105.805 25.455 105.805 25.8044V27.4041C105.805 27.7534 105.923 28.0231 106.159 28.2131C106.395 28.397 106.69 28.4889 107.044 28.4889C107.398 28.4889 107.69 28.397 107.92 28.2131C108.149 28.0231 108.264 27.7534 108.264 27.4041V25.8044Z" fill="black"/>
    <path d="M110.89 22.1912H110.969C111.093 22.1912 111.156 22.2495 111.156 22.3659V27.4868C111.156 28.1427 111.454 28.4706 112.051 28.4706H112.208C112.261 28.4706 112.304 28.4889 112.336 28.5257C112.376 28.5625 112.395 28.6023 112.395 28.6452V28.7188C112.395 28.8414 112.277 28.9027 112.041 28.9027C111.595 28.9027 111.257 28.7831 111.028 28.5441C110.798 28.3051 110.687 27.9557 110.693 27.496V22.3659C110.693 22.2495 110.759 22.1912 110.89 22.1912Z" fill="black"/>
    <path d="M114.176 24.2874H114.254C114.385 24.2874 114.451 24.3487 114.451 24.4713V27.3765C114.451 27.7381 114.546 28.0109 114.736 28.1947C114.933 28.3786 115.209 28.4706 115.563 28.4706C115.917 28.4706 116.222 28.3388 116.478 28.0752C116.537 28.0078 116.599 27.9741 116.665 27.9741C116.789 27.9741 116.852 28.0415 116.852 28.1764C116.852 28.2315 116.835 28.2806 116.802 28.3235C116.671 28.4951 116.488 28.636 116.252 28.7464C116.015 28.8506 115.766 28.9027 115.504 28.9027C115.051 28.9027 114.684 28.7709 114.402 28.5073C114.126 28.2377 113.989 27.8638 113.989 27.3857V24.4713C113.989 24.3487 114.051 24.2874 114.176 24.2874ZM117.088 24.3058H117.186C117.311 24.3058 117.373 24.3671 117.373 24.4897V27.827C117.373 28.066 117.393 28.2315 117.432 28.3235C117.478 28.4093 117.563 28.4675 117.688 28.4981L117.796 28.5257C117.895 28.5441 117.944 28.584 117.944 28.6452V28.7464C117.944 28.8506 117.878 28.9027 117.747 28.9027C117.426 28.9027 117.203 28.8138 117.078 28.636C116.96 28.4583 116.901 28.1856 116.901 27.8178V24.4897C116.901 24.3671 116.963 24.3058 117.088 24.3058Z" fill="black"/>
    <path d="M119.695 22.1912H119.774C119.899 22.1912 119.961 22.2495 119.961 22.3659L119.932 27.4868C119.938 27.7994 120.03 28.0415 120.207 28.2131C120.391 28.3848 120.63 28.4706 120.925 28.4706H121.171C121.224 28.4706 121.266 28.4889 121.299 28.5257C121.338 28.5625 121.358 28.6023 121.358 28.6452V28.7188C121.358 28.8414 121.211 28.9027 120.915 28.9027C120.482 28.9027 120.135 28.7801 119.873 28.5349C119.61 28.2836 119.476 27.9373 119.469 27.496L119.499 22.3659C119.512 22.2495 119.577 22.1912 119.695 22.1912ZM118.938 24.3058H119.174C119.233 24.3058 119.279 24.3242 119.312 24.361C119.351 24.3977 119.371 24.4406 119.371 24.4897V24.5448C119.371 24.5939 119.351 24.6368 119.312 24.6735C119.279 24.7103 119.233 24.7287 119.174 24.7287H118.938C118.879 24.7287 118.83 24.7103 118.79 24.6735C118.757 24.6368 118.741 24.5939 118.741 24.5448V24.4897C118.741 24.4406 118.757 24.3977 118.79 24.361C118.83 24.3242 118.879 24.3058 118.938 24.3058ZM120.256 24.3058H120.984C121.037 24.3058 121.079 24.3242 121.112 24.361C121.152 24.3977 121.171 24.4406 121.171 24.4897V24.5448C121.171 24.5939 121.152 24.6368 121.112 24.6735C121.079 24.7103 121.037 24.7287 120.984 24.7287H120.256C120.204 24.7287 120.158 24.7103 120.118 24.6735C120.079 24.6368 120.059 24.5939 120.059 24.5448V24.4897C120.059 24.4406 120.079 24.3977 120.118 24.361C120.158 24.3242 120.204 24.3058 120.256 24.3058Z" fill="black"/>
    <path d="M123.178 24.2966H123.345C123.424 24.2966 123.476 24.3119 123.502 24.3426C123.529 24.3732 123.542 24.4192 123.542 24.4805V28.7188C123.542 28.774 123.522 28.8199 123.483 28.8567C123.443 28.8873 123.397 28.9027 123.345 28.9027H123.178C123.125 28.9027 123.079 28.8873 123.04 28.8567C123.001 28.8199 122.981 28.774 122.981 28.7188V24.4805C122.981 24.4008 122.997 24.3518 123.03 24.3334C123.069 24.3089 123.119 24.2966 123.178 24.2966ZM122.794 22.2556C122.86 22.2004 123.01 22.1729 123.246 22.1729C123.483 22.1729 123.637 22.2035 123.709 22.2648C123.781 22.32 123.817 22.4395 123.817 22.6233V22.7429C123.817 22.9513 123.781 23.083 123.709 23.1382C123.637 23.1934 123.483 23.2209 123.246 23.2209C123.01 23.2209 122.86 23.1934 122.794 23.1382C122.728 23.083 122.696 22.9513 122.696 22.7429V22.6233C122.696 22.4272 122.728 22.3046 122.794 22.2556ZM123.473 22.6509C123.473 22.5896 123.456 22.5498 123.424 22.5314C123.397 22.5069 123.338 22.4946 123.246 22.4946C123.161 22.4946 123.105 22.5038 123.079 22.5222C123.053 22.5406 123.04 22.5835 123.04 22.6509V22.7429C123.04 22.8103 123.053 22.8532 123.079 22.8716C123.105 22.89 123.164 22.8992 123.256 22.8992C123.348 22.8992 123.407 22.89 123.433 22.8716C123.46 22.8532 123.473 22.8103 123.473 22.7429V22.6509Z" fill="black"/>
    <path d="M125.373 25.8044C125.373 25.3202 125.53 24.9463 125.845 24.6827C126.16 24.4192 126.57 24.2874 127.075 24.2874C127.58 24.2874 127.986 24.4223 128.295 24.6919C128.603 24.9555 128.757 25.3263 128.757 25.8044V27.4041C128.757 27.8822 128.603 28.256 128.295 28.5257C127.986 28.7893 127.58 28.9211 127.075 28.9211C126.576 28.9211 126.166 28.7893 125.845 28.5257C125.53 28.256 125.373 27.8822 125.373 27.4041V25.8044ZM128.295 25.8044C128.295 25.455 128.18 25.1884 127.95 25.0045C127.721 24.8145 127.429 24.7195 127.075 24.7195C126.72 24.7195 126.425 24.8145 126.189 25.0045C125.953 25.1884 125.835 25.455 125.835 25.8044V27.4041C125.835 27.7534 125.953 28.0231 126.189 28.2131C126.425 28.397 126.72 28.4889 127.075 28.4889C127.429 28.4889 127.721 28.397 127.95 28.2131C128.18 28.0231 128.295 27.7534 128.295 27.4041V25.8044Z" fill="black"/>
    <path d="M132.475 24.2874C132.967 24.2874 133.344 24.41 133.606 24.6552C133.869 24.8942 134 25.2466 134 25.7124V28.7188C134 28.8414 133.938 28.9027 133.813 28.9027H133.734C133.603 28.9027 133.538 28.8414 133.538 28.7188V25.8136C133.538 25.0842 133.18 24.7195 132.465 24.7195C132.091 24.7195 131.773 24.8574 131.511 25.1332C131.439 25.1884 131.376 25.216 131.324 25.216C131.206 25.216 131.144 25.1547 131.137 25.0321C131.137 24.9831 131.15 24.934 131.176 24.885C131.314 24.7073 131.498 24.5632 131.727 24.4529C131.957 24.3426 132.206 24.2874 132.475 24.2874ZM130.812 24.315H130.891C130.943 24.315 130.989 24.3334 131.029 24.3702C131.068 24.4008 131.088 24.4437 131.088 24.4989V28.7188C131.088 28.774 131.068 28.8199 131.029 28.8567C130.989 28.8873 130.943 28.9027 130.891 28.9027H130.812C130.76 28.9027 130.714 28.8873 130.675 28.8567C130.635 28.8199 130.616 28.774 130.616 28.7188V24.4989C130.616 24.4437 130.635 24.4008 130.675 24.3702C130.714 24.3334 130.76 24.315 130.812 24.315Z" fill="black"/>
    <defs>
    <linearGradient id="paint0_linear_1_8" x1="131.894" y1="-0.918514" x2="47.1178" y2="10.0755" gradientUnits="userSpaceOnUse">
    <stop stop-color="#0DC3FF"/>
    <stop offset="0.2498" stop-color="#09A1F1"/>
    <stop offset="0.5769" stop-color="#047AE1"/>
    <stop offset="0.8385" stop-color="#0162D8"/>
    <stop offset="1" stop-color="#0059D4"/>
    </linearGradient>
    <linearGradient id="paint1_linear_1_8" x1="132.015" y1="0.011299" x2="47.2384" y2="11.0053" gradientUnits="userSpaceOnUse">
    <stop stop-color="#0DC3FF"/>
    <stop offset="0.2498" stop-color="#09A1F1"/>
    <stop offset="0.5769" stop-color="#047AE1"/>
    <stop offset="0.8385" stop-color="#0162D8"/>
    <stop offset="1" stop-color="#0059D4"/>
    </linearGradient>
    <linearGradient id="paint2_linear_1_8" x1="132.117" y1="0.800803" x2="47.3409" y2="11.7949" gradientUnits="userSpaceOnUse">
    <stop stop-color="#0DC3FF"/>
    <stop offset="0.2498" stop-color="#09A1F1"/>
    <stop offset="0.5769" stop-color="#047AE1"/>
    <stop offset="0.8385" stop-color="#0162D8"/>
    <stop offset="1" stop-color="#0059D4"/>
    </linearGradient>
    <linearGradient id="paint3_linear_1_8" x1="132.262" y1="1.91275" x2="47.485" y2="12.9068" gradientUnits="userSpaceOnUse">
    <stop stop-color="#0DC3FF"/>
    <stop offset="0.2498" stop-color="#09A1F1"/>
    <stop offset="0.5769" stop-color="#047AE1"/>
    <stop offset="0.8385" stop-color="#0162D8"/>
    <stop offset="1" stop-color="#0059D4"/>
    </linearGradient>
    <linearGradient id="paint4_linear_1_8" x1="132.446" y1="3.33805" x2="47.6699" y2="14.3321" gradientUnits="userSpaceOnUse">
    <stop stop-color="#0DC3FF"/>
    <stop offset="0.2498" stop-color="#09A1F1"/>
    <stop offset="0.5769" stop-color="#047AE1"/>
    <stop offset="0.8385" stop-color="#0162D8"/>
    <stop offset="1" stop-color="#0059D4"/>
    </linearGradient>
    <linearGradient id="paint5_linear_1_8" x1="132.644" y1="4.85772" x2="47.8669" y2="15.8518" gradientUnits="userSpaceOnUse">
    <stop stop-color="#0DC3FF"/>
    <stop offset="0.2498" stop-color="#09A1F1"/>
    <stop offset="0.5769" stop-color="#047AE1"/>
    <stop offset="0.8385" stop-color="#0162D8"/>
    <stop offset="1" stop-color="#0059D4"/>
    </linearGradient>
    <linearGradient id="paint6_linear_1_8" x1="132.756" y1="5.72136" x2="47.979" y2="16.7154" gradientUnits="userSpaceOnUse">
    <stop stop-color="#0DC3FF"/>
    <stop offset="0.2498" stop-color="#09A1F1"/>
    <stop offset="0.5769" stop-color="#047AE1"/>
    <stop offset="0.8385" stop-color="#0162D8"/>
    <stop offset="1" stop-color="#0059D4"/>
    </linearGradient>
    <linearGradient id="paint7_linear_1_8" x1="132.859" y1="6.519" x2="48.0823" y2="17.513" gradientUnits="userSpaceOnUse">
    <stop stop-color="#0DC3FF"/>
    <stop offset="0.2498" stop-color="#09A1F1"/>
    <stop offset="0.5769" stop-color="#047AE1"/>
    <stop offset="0.8385" stop-color="#0162D8"/>
    <stop offset="1" stop-color="#0059D4"/>
    </linearGradient>
    <linearGradient id="paint8_linear_1_8" x1="132.999" y1="7.60071" x2="48.2226" y2="18.5948" gradientUnits="userSpaceOnUse">
    <stop stop-color="#0DC3FF"/>
    <stop offset="0.2498" stop-color="#09A1F1"/>
    <stop offset="0.5769" stop-color="#047AE1"/>
    <stop offset="0.8385" stop-color="#0162D8"/>
    <stop offset="1" stop-color="#0059D4"/>
    </linearGradient>
    <linearGradient id="paint9_linear_1_8" x1="133.123" y1="8.55193" x2="48.3461" y2="19.546" gradientUnits="userSpaceOnUse">
    <stop stop-color="#0DC3FF"/>
    <stop offset="0.2498" stop-color="#09A1F1"/>
    <stop offset="0.5769" stop-color="#047AE1"/>
    <stop offset="0.8385" stop-color="#0162D8"/>
    <stop offset="1" stop-color="#0059D4"/>
    </linearGradient>
    <linearGradient id="paint10_linear_1_8" x1="133.243" y1="9.48343" x2="48.4669" y2="20.4775" gradientUnits="userSpaceOnUse">
    <stop stop-color="#0DC3FF"/>
    <stop offset="0.2498" stop-color="#09A1F1"/>
    <stop offset="0.5769" stop-color="#047AE1"/>
    <stop offset="0.8385" stop-color="#0162D8"/>
    <stop offset="1" stop-color="#0059D4"/>
    </linearGradient>
    <linearGradient id="paint11_linear_1_8" x1="6.46967" y1="30.9879" x2="33.4368" y2="11.0967" gradientUnits="userSpaceOnUse">
    <stop stop-color="#0059D4"/>
    <stop offset="0.2588" stop-color="#0370DD"/>
    <stop offset="0.7995" stop-color="#0AABF5"/>
    <stop offset="1" stop-color="#0DC3FF"/>
    </linearGradient>
    <linearGradient id="paint12_linear_1_8" x1="6.46967" y1="30.9879" x2="33.4368" y2="11.0967" gradientUnits="userSpaceOnUse">
    <stop stop-color="#0059D4"/>
    <stop offset="0.2588" stop-color="#0370DD"/>
    <stop offset="0.7995" stop-color="#0AABF5"/>
    <stop offset="1" stop-color="#0DC3FF"/>
    </linearGradient>
    <linearGradient id="paint13_linear_1_8" x1="0.316645" y1="22.6461" x2="27.2838" y2="2.75489" gradientUnits="userSpaceOnUse">
    <stop stop-color="#0059D4"/>
    <stop offset="0.2588" stop-color="#0370DD"/>
    <stop offset="0.7995" stop-color="#0AABF5"/>
    <stop offset="1" stop-color="#0DC3FF"/>
    </linearGradient>
    </defs>
</svg>